<?xml version="1.0" encoding="UTF-8"?>
<svg width="42px" height="42px" viewBox="0 0 42 42" version="1.1" xmlns="http://www.w3.org/2000/svg" xmlns:xlink="http://www.w3.org/1999/xlink">
    <title>1FB209D0-2547-4D3F-AF70-0558F720BB16@3x</title>
    <g id="Final-UI" stroke="none" stroke-width="1" fill="none" fill-rule="evenodd">
        <g id="01-01-Main-landing" transform="translate(-150.000000, -4502.000000)">
            <g id="footer" transform="translate(0.000000, 4164.000000)">
                <g id="ic_facebook-footer" transform="translate(150.000000, 338.000000)">
                    <circle id="Oval-2-Copy-3" fill="#012F73" cx="21" cy="21" r="21"></circle>
                    <rect id="Rectangle" fill="#37AB4A" x="0" y="0" width="42" height="42" rx="12"></rect>
                    <path d="M25.2462041,17.7464082 L22.4378367,17.7464082 L22.4378367,15.9045306 C22.4378367,15.2128163 22.8962857,15.051551 23.2191837,15.051551 C23.5413469,15.051551 25.2010204,15.051551 25.2010204,15.051551 L25.2010204,12.0106531 L22.4716327,12 C19.4417551,12 18.7522449,14.268 18.7522449,15.7193878 L18.7522449,17.7464082 L17,17.7464082 L17,20.8798776 L18.7522449,20.8798776 C18.7522449,24.9012245 18.7522449,29.7465306 18.7522449,29.7465306 L22.4378367,29.7465306 C22.4378367,29.7465306 22.4378367,24.8534694 22.4378367,20.8798776 L24.9247755,20.8798776 L25.2462041,17.7464082 Z" id="Shape-Copy-2" fill="#FFFFFF" fill-rule="nonzero"></path>
                </g>
            </g>
        </g>
    </g>
</svg>