<?xml version="1.0" encoding="UTF-8"?>
<svg width="42px" height="42px" viewBox="0 0 42 42" version="1.1" xmlns="http://www.w3.org/2000/svg" xmlns:xlink="http://www.w3.org/1999/xlink">
    <title>CDB30503-EFCC-43F0-9019-CD5DD6F4865F@3x</title>
    <g id="Final-UI" stroke="none" stroke-width="1" fill="none" fill-rule="evenodd">
        <g id="01-01-Main-landing" transform="translate(-309.000000, -4502.000000)">
            <g id="footer" transform="translate(0.000000, 4164.000000)">
                <g id="social-icons" transform="translate(150.000000, 338.000000)">
                    <g id="ic_linkedin_footer" transform="translate(159.000000, 0.000000)">
                        <rect id="Rectangle" fill="#37AB4A" x="0" y="0" width="42" height="42" rx="12"></rect>
                        <g id="Group-2" transform="translate(14.000000, 13.000000)" fill="#FFFFFF">
                            <path d="M0.259615385,4.96153846 L3.36346154,4.96153846 L3.36346154,14.9423077 L0.259615385,14.9423077 L0.259615385,4.96153846 Z M1.81730769,-3.46389584e-14 C2.80961538,-3.46389584e-14 3.61730769,0.807692308 3.61730769,1.8 C3.61730769,2.79230769 2.80961538,3.6 1.81730769,3.6 C0.819230769,3.6 0.0173076923,2.79230769 0.0173076923,1.8 C0.0173076923,0.807692308 0.819230769,-3.46389584e-14 1.81730769,-3.46389584e-14 L1.81730769,-3.46389584e-14 Z" id="XMLID_195_" fill-rule="nonzero"></path>
                            <path d="M5.31346154,4.96153846 L8.28461538,4.96153846 L8.28461538,6.32884615 L8.325,6.32884615 C8.74038462,5.54423077 9.75,4.71923077 11.2615385,4.71923077 C14.4,4.71923077 14.9826923,6.78461538 14.9826923,9.47307692 L14.9826923,14.9423077 L11.8846154,14.9423077 L11.8846154,10.0903846 C11.8846154,8.93076923 11.8673077,7.44230769 10.275,7.44230769 C8.65961538,7.44230769 8.41730769,8.70576923 8.41730769,10.0038462 L8.41730769,14.9423077 L5.31923077,14.9423077 L5.31923077,4.96153846 L5.31346154,4.96153846 Z" id="XMLID_192_"></path>
                        </g>
                    </g>
                </g>
            </g>
        </g>
    </g>
</svg>