<?xml version="1.0" encoding="UTF-8"?>
<svg width="42px" height="42px" viewBox="0 0 42 42" version="1.1" xmlns="http://www.w3.org/2000/svg" xmlns:xlink="http://www.w3.org/1999/xlink">
    <title>ADCCF7B9-3873-480C-A278-B100192012A2@3x</title>
    <g id="Final-UI" stroke="none" stroke-width="1" fill="none" fill-rule="evenodd">
        <g id="01-01-Main-landing" transform="translate(-468.000000, -4502.000000)">
            <g id="footer" transform="translate(0.000000, 4164.000000)">
                <g id="social-icons" transform="translate(150.000000, 338.000000)">
                    <g id="ic_youtube_footer" transform="translate(318.000000, 0.000000)">
                        <circle id="Oval-2-Copy-2" fill="#012F73" cx="21" cy="21" r="21"></circle>
                        <rect id="Rectangle" fill="#37AB4A" x="0" y="0" width="42" height="42" rx="12"></rect>
                        <path d="M27.7427997,15.249544 C28.6852784,15.3546308 29.4683718,16.0607156 29.6884555,17.0180592 C30.001858,18.3815047 30,19.8694441 30,21.2731489 C30,22.6766472 29.9981418,24.1643802 29.6849457,25.5278258 C29.4646555,26.4851693 28.6815621,27.1910476 27.7392899,27.2963409 C25.7862791,27.5145665 23.8125612,27.5427932 21.8427556,27.5456102 L20.9988645,27.5457416 C18.7497161,27.5469804 16.4904513,27.5457416 14.2586454,27.2963409 C13.3161668,27.1910476 12.5334862,26.4851693 12.3134026,25.5278258 C12.0348225,24.3158741 12.0038692,23.0057201 12.0004299,21.7438155 L12,21.2731489 C12,19.8694441 12.0037162,18.3815047 12.3169123,17.0180592 C12.5372025,16.0607156 13.319883,15.3546308 14.2621552,15.249544 C16.215166,15.0313184 18.1888839,15.0030917 20.1586896,15.0002747 L21.0025807,15.0001433 C23.251729,14.9989045 25.5109938,15.0001433 27.7427997,15.249544 Z M19.3799323,18.6899661 L19.3799323,24.4420541 L24.3613866,21.5660101 L19.3799323,18.6899661 Z" id="Combined-Shape" fill="#FFFFFF"></path>
                    </g>
                </g>
            </g>
        </g>
    </g>
</svg>