<?xml version="1.0" encoding="utf-8"?>
<!-- Generator: Adobe Illustrator 23.1.0, SVG Export Plug-In . SVG Version: 6.00 Build 0)  -->
<svg version="1.1" id="Layer_1" xmlns="http://www.w3.org/2000/svg" xmlns:xlink="http://www.w3.org/1999/xlink" x="0px" y="0px"
	 viewBox="0 0 30 30" enable-background="new 0 0 30 30" xml:space="preserve">
<g>
	<path fill="none" stroke="#000000" stroke-miterlimit="10" d="M12.2,13.5H8c-0.7,0-1.3-0.6-1.3-1.3V8c0-0.7,0.6-1.3,1.3-1.3h4.3
		c0.7,0,1.3,0.6,1.3,1.3v4.3C13.5,13,12.9,13.5,12.2,13.5z"/>
	<path fill="none" stroke="#000000" stroke-miterlimit="10" d="M22,13.5h-4.3c-0.7,0-1.3-0.6-1.3-1.3V8c0-0.7,0.6-1.3,1.3-1.3H22
		c0.7,0,1.3,0.6,1.3,1.3v4.3C23.3,13,22.7,13.5,22,13.5z"/>
	<path fill="none" stroke="#000000" stroke-miterlimit="10" d="M12.2,23.2H8c-0.7,0-1.3-0.6-1.3-1.3v-4.3c0-0.7,0.6-1.3,1.3-1.3h4.3
		c0.7,0,1.3,0.6,1.3,1.3V22C13.5,22.7,12.9,23.2,12.2,23.2z"/>
	<path fill="none" stroke="#000000" stroke-miterlimit="10" d="M22,23.2h-4.3c-0.7,0-1.3-0.6-1.3-1.3v-4.3c0-0.7,0.6-1.3,1.3-1.3H22
		c0.7,0,1.3,0.6,1.3,1.3V22C23.3,22.7,22.7,23.2,22,23.2z"/>
</g>
</svg>
