<?xml version="1.0" encoding="utf-8"?>
<!-- Generator: Adobe Illustrator 23.1.0, SVG Export Plug-In . SVG Version: 6.00 Build 0)  -->
<svg version="1.1" id="Layer_1" xmlns="http://www.w3.org/2000/svg" xmlns:xlink="http://www.w3.org/1999/xlink" x="0px" y="0px"
	 viewBox="0 0 102.4 62" enable-background="new 0 0 102.4 62" xml:space="preserve">
<g>
	<path fill="#3FAE51" d="M29.3,33.9h-3.2h-11v2.9H26C25.2,42.6,20.5,47,14.7,47C8.4,47,3.2,41.6,3.2,35.1c0-6.6,5.1-11.9,11.5-11.9
		c3.5,0,6.7,1.7,8.8,4.3l2.3-2.3c-2.7-3.2-6.7-5.3-11.1-5.3C6.6,19.8,0,26.6,0,35.1c0,8.4,6.6,15.3,14.7,15.3c8,0,14.5-6.7,14.7-15
		c0,0,0-0.1,0-0.1v-0.2L29.3,33.9L29.3,33.9z"/>
	<path fill="#3FAE51" d="M50.2,19.8v22.1c0,4.6-3.8,8.4-8.4,8.4c-4.6,0-8.4-3.8-8.4-8.4V19.8h2.9v22.6c0,3,2.5,5.5,5.5,5.5
		c3,0,5.5-2.5,5.5-5.5V19.8H50.2z"/>
	<rect x="56.3" y="19.8" fill="#3FAE51" width="1.9" height="30.5"/>
	<rect x="52.3" y="54" fill="#606060" width="1" height="8"/>
	<rect x="82.3" y="54" fill="#606060" width="1" height="8"/>
	<polygon fill="#606060" points="101.4,54 99.4,57.2 97.4,54 96.4,54 98.9,58 98.9,62 99.9,62 99.9,58 102.4,54 	"/>
	<line fill="#606060" x1="98.9" y1="57" x2="99.9" y2="57"/>
	<polygon fill="#606060" points="93.2,54 90.8,54 89.8,54 87.4,54 87.4,55 89.8,55 89.8,62 90.8,62 90.8,55 93.2,55 	"/>
	<polygon fill="#606060" points="62.3,54 62.3,60.5 58.3,54 57.3,54 57.3,62 58.3,62 58.3,55.5 62.3,62 63.3,62 63.3,54 	"/>
	<polygon fill="#3FAE51" points="102.4,21.8 102.4,19.8 94.4,19.8 92.5,19.8 92.5,21.8 92.5,33.9 92.5,35.9 92.5,48.3 92.5,50.3 
		94.4,50.3 102.4,50.3 102.4,48.3 94.4,48.3 94.4,35.9 100.3,35.9 100.3,33.9 94.4,33.9 94.4,21.8 	"/>
	<path fill="#3FAE51" d="M83.8,24.3c-2.8-2.8-6.6-4.5-10.8-4.5h-5.7h0h-3v30.5h3h0H73c8.4,0,15.3-6.8,15.3-15.3
		C88.3,30.8,86.6,27,83.8,24.3z M73.8,46.8h-6.4V23.3h6.4c3.2,0,6.2,1.3,8.3,3.4c2.1,2.1,3.4,5.1,3.4,8.3
		C85.5,41.6,80.3,46.8,73.8,46.8z"/>
	<path fill="#606060" d="M75.8,61c-1.4,0-2.6-1.2-2.6-2.6v-0.8c0-1.4,1.2-2.6,2.6-2.6c0.7,0,1.4,0.3,1.8,0.8
		c0.4,0.4,0.6,0.8,0.7,1.3h0.9c-0.1-0.8-0.5-1.5-1-2c-0.6-0.6-1.5-1-2.5-1c-1.9,0-3.5,1.6-3.5,3.5v1c0,1.9,1.6,3.5,3.5,3.5
		c1.8,0,3.2-1.3,3.4-3h-0.9C78.1,60.1,77,61,75.8,61z"/>
	<path fill="#66CAF2" d="M56.6,17.7c-5.1-7.4-6.1-8.2-6.1-10.9c0-3.7,3-6.8,6.8-6.8S64,3,64,6.8c0,2.7-0.9,3.5-6.1,10.9
		C57.6,18.2,56.9,18.2,56.6,17.7L56.6,17.7z M57.3,9.6c1.6,0,2.8-1.3,2.8-2.8s-1.3-2.8-2.8-2.8s-2.8,1.3-2.8,2.8S55.7,9.6,57.3,9.6z
		"/>
</g>
</svg>
