<?xml version="1.0" encoding="utf-8"?>
<!-- Generator: Adobe Illustrator 23.1.0, SVG Export Plug-In . SVG Version: 6.00 Build 0)  -->
<svg version="1.1" id="Layer_1" xmlns="http://www.w3.org/2000/svg" xmlns:xlink="http://www.w3.org/1999/xlink" x="0px" y="0px"
	 viewBox="0 0 30 30" enable-background="new 0 0 30 30" xml:space="preserve">
<g>
	<circle fill="none" stroke="#000000" stroke-linecap="round" stroke-linejoin="round" cx="15" cy="15" r="8.3"/>
	<path fill="none" stroke="#000000" stroke-linecap="round" stroke-linejoin="round" d="M17.1,13L17.1,13c0-1-0.8-1.9-1.9-1.9H15
		c-1,0-1.9,0.8-1.9,1.9v0c0,0.6,0.3,1.1,0.9,1.4l2.1,1.1c0.5,0.3,0.9,0.8,0.9,1.4v0c0,1-0.8,1.9-1.9,1.9H15c-1,0-1.9-0.8-1.9-1.9v0"
		/>
	<line fill="none" stroke="#000000" stroke-linecap="round" stroke-linejoin="round" x1="15.1" y1="10" x2="15.1" y2="11.1"/>
	<line fill="none" stroke="#000000" stroke-linecap="round" stroke-linejoin="round" x1="15.1" y1="18.8" x2="15.1" y2="19.9"/>
</g>
</svg>
